<?xml version="1.0" encoding="UTF-8"?>
<svg id="Layer_2" data-name="Layer 2" xmlns="http://www.w3.org/2000/svg" viewBox="0 0 132.74 126.7">
  <defs>
    <style>
      .cls-1 {
        stroke: #d4ba45;
      }

      .cls-1, .cls-2 {
        fill: none;
        stroke-linecap: round;
        stroke-linejoin: round;
        stroke-width: 10px;
      }

      .cls-2 {
        stroke: #133356;
      }
    </style>
  </defs>
  <g id="Layer_1-2" data-name="Layer 1">
    <g>
      <path class="cls-2" d="m63.35,121.7c-32.17,0-58.35-26.18-58.35-58.35S31.18,5,63.35,5c12.5,0,24.41,3.89,34.46,11.26.45.33.54.95.22,1.4-.33.44-.95.54-1.4.22-9.7-7.11-21.21-10.87-33.28-10.87C32.28,7,7,32.28,7,63.35s25.28,56.35,56.35,56.35,56.35-25.28,56.35-56.35c0-6.33-1.04-12.54-3.1-18.47-.18-.52.1-1.09.62-1.27.52-.18,1.09.09,1.27.62,2.13,6.14,3.21,12.57,3.21,19.12,0,32.17-26.18,58.35-58.35,58.35Z"/>
      <path class="cls-2" d="m117.55,44.55c2.04,5.89,3.15,12.21,3.15,18.8,0,31.67-25.68,57.35-57.35,57.35S6,95.02,6,63.35,31.68,6,63.35,6c12.67,0,24.38,4.11,33.87,11.07"/>
      <path class="cls-2" d="m117.55,45.55c-.41,0-.8-.26-.94-.67-.16-.47-.33-.94-.51-1.41-.2-.52.07-1.09.58-1.29.52-.19,1.09.07,1.29.58.18.48.36.97.53,1.46.18.52-.1,1.09-.62,1.27-.11.04-.22.06-.33.06Z"/>
      <path class="cls-2" d="m117.03,43.12c.18.47.35.95.52,1.43"/>
      <path class="cls-1" d="m61.34,85.48c-.11,0-.22-.02-.32-.05-.39-.13-.66-.49-.68-.9l-2.01-41.25c-.03-.55.4-1.02.95-1.05.54-.03,1.02.4,1.05.95l1.89,38.71L125.97,6.36c.36-.42.99-.48,1.41-.12.42.36.48.99.12,1.41L62.1,85.12c-.19.23-.48.35-.76.35Z"/>
      <polyline class="cls-1" points="59.33 43.23 61.34 84.48 126.74 7.01"/>
    </g>
  </g>
</svg>